<?xml version="1.0" encoding="utf-8"?><svg xmlns="http://www.w3.org/2000/svg" xmlns:xlink="http://www.w3.org/1999/xlink" width="250px" height="250px" viewBox="0 0 100 100" preserveAspectRatio="xMidYMid" style="margin-right:-2px;display:block;background-repeat-y:initial;background-repeat-x:initial;animation-play-state:paused" ><g transform="rotate(0 50 50)" style="transform:matrix(1, 0, 0, 1, 0, 0);animation-play-state:paused" ><rect x="47" y="19.5" rx="0" ry="0" width="6" height="21" fill="#6a6a6a" opacity="0.038462" style="opacity:0.038462;animation-play-state:paused" ></rect></g>
<g transform="rotate(13.846153846153847 50 50)" style="transform:matrix(0.970942, 0.239316, -0.239316, 0.970942, 13.4187, -10.5129);animation-play-state:paused" ><rect x="47" y="19.5" rx="0" ry="0" width="6" height="21" fill="#6a6a6a" opacity="0.076924" style="opacity:0.076924;animation-play-state:paused" ></rect></g>
<g transform="rotate(27.692307692307693 50 50)" style="transform:matrix(0.885456, 0.464723, -0.464723, 0.885456, 28.9634, -17.509);animation-play-state:paused" ><rect x="47" y="19.5" rx="0" ry="0" width="6" height="21" fill="#6a6a6a" opacity="0.115385" style="opacity:0.115385;animation-play-state:paused" ></rect></g>
<g transform="rotate(41.53846153846154 50 50)" style="transform:matrix(0.748511, 0.663123, -0.663123, 0.748511, 45.7306, -20.5817);animation-play-state:paused" ><rect x="47" y="19.5" rx="0" ry="0" width="6" height="21" fill="#6a6a6a" opacity="0.153847" style="opacity:0.153847;animation-play-state:paused" ></rect></g>
<g transform="rotate(55.38461538461539 50 50)" style="transform:matrix(0.568065, 0.822984, -0.822984, 0.568065, 62.746, -19.5524);animation-play-state:paused" ><rect x="47" y="19.5" rx="0" ry="0" width="6" height="21" fill="#6a6a6a" opacity="0.192308" style="opacity:0.192308;animation-play-state:paused" ></rect></g>
<g transform="rotate(69.23076923076923 50 50)" style="transform:matrix(0.354605, 0.935016, -0.935016, 0.354605, 79.0206, -14.4811);animation-play-state:paused" ><rect x="47" y="19.5" rx="0" ry="0" width="6" height="21" fill="#6a6a6a" opacity="0.23077" style="opacity:0.23077;animation-play-state:paused" ></rect></g>
<g transform="rotate(83.07692307692308 50 50)" style="transform:matrix(0.120537, 0.992709, -0.992709, 0.120537, 93.6086, -5.66228);animation-play-state:paused" ><rect x="47" y="19.5" rx="0" ry="0" width="6" height="21" fill="#6a6a6a" opacity="0.269231" style="opacity:0.269231;animation-play-state:paused" ></rect></g>
<g transform="rotate(96.92307692307692 50 50)" style="transform:matrix(-0.120537, 0.992709, -0.992709, -0.120537, 105.662, 6.39139);animation-play-state:paused" ><rect x="47" y="19.5" rx="0" ry="0" width="6" height="21" fill="#6a6a6a" opacity="0.307693" style="opacity:0.307693;animation-play-state:paused" ></rect></g>
<g transform="rotate(110.76923076923077 50 50)" style="transform:matrix(-0.354605, 0.935016, -0.935016, -0.354605, 114.481, 20.9794);animation-play-state:paused" ><rect x="47" y="19.5" rx="0" ry="0" width="6" height="21" fill="#6a6a6a" opacity="0.346154" style="opacity:0.346154;animation-play-state:paused" ></rect></g>
<g transform="rotate(124.61538461538461 50 50)" style="transform:matrix(-0.568065, 0.822984, -0.822984, -0.568065, 119.552, 37.254);animation-play-state:paused" ><rect x="47" y="19.5" rx="0" ry="0" width="6" height="21" fill="#6a6a6a" opacity="0.384616" style="opacity:0.384616;animation-play-state:paused" ></rect></g>
<g transform="rotate(138.46153846153845 50 50)" style="transform:matrix(-0.748511, 0.663123, -0.663123, -0.748511, 120.582, 54.2694);animation-play-state:paused" ><rect x="47" y="19.5" rx="0" ry="0" width="6" height="21" fill="#6a6a6a" opacity="0.423077" style="opacity:0.423077;animation-play-state:paused" ></rect></g>
<g transform="rotate(152.30769230769232 50 50)" style="transform:matrix(-0.885456, 0.464723, -0.464723, -0.885456, 117.509, 71.0366);animation-play-state:paused" ><rect x="47" y="19.5" rx="0" ry="0" width="6" height="21" fill="#6a6a6a" opacity="0.461539" style="opacity:0.461539;animation-play-state:paused" ></rect></g>
<g transform="rotate(166.15384615384616 50 50)" style="transform:matrix(-0.970942, 0.239316, -0.239316, -0.970942, 110.513, 86.5813);animation-play-state:paused" ><rect x="47" y="19.5" rx="0" ry="0" width="6" height="21" fill="#6a6a6a" opacity="0.5" style="opacity:0.5;animation-play-state:paused" ></rect></g>
<g transform="rotate(180 50 50)" style="transform:matrix(-1, 1.22465e-16, -1.22465e-16, -1, 100, 100);animation-play-state:paused" ><rect x="47" y="19.5" rx="0" ry="0" width="6" height="21" fill="#6a6a6a" opacity="0.538462" style="opacity:0.538462;animation-play-state:paused" ></rect></g>
<g transform="rotate(193.84615384615384 50 50)" style="transform:matrix(-0.970942, -0.239316, 0.239316, -0.970942, 86.5813, 110.513);animation-play-state:paused" ><rect x="47" y="19.5" rx="0" ry="0" width="6" height="21" fill="#6a6a6a" opacity="0.576924" style="opacity:0.576924;animation-play-state:paused" ></rect></g>
<g transform="rotate(207.69230769230768 50 50)" style="transform:matrix(-0.885456, -0.464723, 0.464723, -0.885456, 71.0366, 117.509);animation-play-state:paused" ><rect x="47" y="19.5" rx="0" ry="0" width="6" height="21" fill="#6a6a6a" opacity="0.615385" style="opacity:0.615385;animation-play-state:paused" ></rect></g>
<g transform="rotate(221.53846153846155 50 50)" style="transform:matrix(-0.748511, -0.663123, 0.663123, -0.748511, 54.2694, 120.582);animation-play-state:paused" ><rect x="47" y="19.5" rx="0" ry="0" width="6" height="21" fill="#6a6a6a" opacity="0.653847" style="opacity:0.653847;animation-play-state:paused" ></rect></g>
<g transform="rotate(235.3846153846154 50 50)" style="transform:matrix(-0.568065, -0.822984, 0.822984, -0.568065, 37.254, 119.552);animation-play-state:paused" ><rect x="47" y="19.5" rx="0" ry="0" width="6" height="21" fill="#6a6a6a" opacity="0.692308" style="opacity:0.692308;animation-play-state:paused" ></rect></g>
<g transform="rotate(249.23076923076923 50 50)" style="transform:matrix(-0.354605, -0.935016, 0.935016, -0.354605, 20.9794, 114.481);animation-play-state:paused" ><rect x="47" y="19.5" rx="0" ry="0" width="6" height="21" fill="#6a6a6a" opacity="0.73077" style="opacity:0.73077;animation-play-state:paused" ></rect></g>
<g transform="rotate(263.0769230769231 50 50)" style="transform:matrix(-0.120536, -0.992709, 0.992709, -0.120536, 6.39138, 105.662);animation-play-state:paused" ><rect x="47" y="19.5" rx="0" ry="0" width="6" height="21" fill="#6a6a6a" opacity="0.769231" style="opacity:0.769231;animation-play-state:paused" ></rect></g>
<g transform="rotate(276.9230769230769 50 50)" style="transform:matrix(0.120536, -0.992709, 0.992709, 0.120536, -5.66227, 93.6086);animation-play-state:paused" ><rect x="47" y="19.5" rx="0" ry="0" width="6" height="21" fill="#6a6a6a" opacity="0.807693" style="opacity:0.807693;animation-play-state:paused" ></rect></g>
<g transform="rotate(290.7692307692308 50 50)" style="transform:matrix(0.354605, -0.935016, 0.935016, 0.354605, -14.4811, 79.0206);animation-play-state:paused" ><rect x="47" y="19.5" rx="0" ry="0" width="6" height="21" fill="#6a6a6a" opacity="0.846154" style="opacity:0.846154;animation-play-state:paused" ></rect></g>
<g transform="rotate(304.61538461538464 50 50)" style="transform:matrix(0.568065, -0.822984, 0.822984, 0.568065, -19.5524, 62.746);animation-play-state:paused" ><rect x="47" y="19.5" rx="0" ry="0" width="6" height="21" fill="#6a6a6a" opacity="0.884616" style="opacity:0.884616;animation-play-state:paused" ></rect></g>
<g transform="rotate(318.46153846153845 50 50)" style="transform:matrix(0.748511, -0.663123, 0.663123, 0.748511, -20.5817, 45.7306);animation-play-state:paused" ><rect x="47" y="19.5" rx="0" ry="0" width="6" height="21" fill="#6a6a6a" opacity="0.923077" style="opacity:0.923077;animation-play-state:paused" ></rect></g>
<g transform="rotate(332.3076923076923 50 50)" style="transform:matrix(0.885456, -0.464723, 0.464723, 0.885456, -17.509, 28.9634);animation-play-state:paused" ><rect x="47" y="19.5" rx="0" ry="0" width="6" height="21" fill="#6a6a6a" opacity="0.961539" style="opacity:0.961539;animation-play-state:paused" ></rect></g>
<g transform="rotate(346.15384615384613 50 50)" style="transform:matrix(0.970942, -0.239316, 0.239316, 0.970942, -10.5129, 13.4187);animation-play-state:paused" ><rect x="47" y="19.5" rx="0" ry="0" width="6" height="21" fill="#6a6a6a" opacity="1" style="animation-play-state:paused" ></rect></g><!-- generated by https://loading.io/ --></svg>